<svg id="visual" viewBox="0 0 900 600" width="900" height="600" xmlns="http://www.w3.org/2000/svg" xmlns:xlink="http://www.w3.org/1999/xlink" version="1.1"><path d="M0 25L39 25L39 13L78 13L78 19L117 19L117 37L157 37L157 19L196 19L196 31L235 31L235 37L274 37L274 13L313 13L313 43L352 43L352 7L391 7L391 7L430 7L430 55L470 55L470 0L509 0L509 61L548 61L548 13L587 13L587 43L626 43L626 61L665 61L665 31L704 31L704 61L743 61L743 25L783 25L783 25L822 25L822 43L861 43L861 13L900 13L900 55L900 0L900 0L861 0L861 0L822 0L822 0L783 0L783 0L743 0L743 0L704 0L704 0L665 0L665 0L626 0L626 0L587 0L587 0L548 0L548 0L509 0L509 0L470 0L470 0L430 0L430 0L391 0L391 0L352 0L352 0L313 0L313 0L274 0L274 0L235 0L235 0L196 0L196 0L157 0L157 0L117 0L117 0L78 0L78 0L39 0L39 0L0 0Z" fill="#b0235f"></path><path d="M0 211L39 211L39 175L78 175L78 103L117 103L117 85L157 85L157 139L196 139L196 85L235 85L235 277L274 277L274 259L313 259L313 247L352 247L352 271L391 271L391 331L430 331L430 301L470 301L470 169L509 169L509 253L548 253L548 73L587 73L587 163L626 163L626 217L665 217L665 223L704 223L704 151L743 151L743 43L783 43L783 187L822 187L822 163L861 163L861 115L900 115L900 127L900 53L900 11L861 11L861 41L822 41L822 23L783 23L783 23L743 23L743 59L704 59L704 29L665 29L665 59L626 59L626 41L587 41L587 11L548 11L548 59L509 59L509 0L470 0L470 53L430 53L430 5L391 5L391 5L352 5L352 41L313 41L313 11L274 11L274 35L235 35L235 29L196 29L196 17L157 17L157 35L117 35L117 17L78 17L78 11L39 11L39 23L0 23Z" fill="#b92c60"></path><path d="M0 217L39 217L39 193L78 193L78 121L117 121L117 145L157 145L157 217L196 217L196 133L235 133L235 343L274 343L274 283L313 283L313 295L352 295L352 349L391 349L391 385L430 385L430 355L470 355L470 241L509 241L509 295L548 295L548 127L587 127L587 199L626 199L626 247L665 247L665 283L704 283L704 229L743 229L743 49L783 49L783 259L822 259L822 205L861 205L861 133L900 133L900 127L900 125L900 113L861 113L861 161L822 161L822 185L783 185L783 41L743 41L743 149L704 149L704 221L665 221L665 215L626 215L626 161L587 161L587 71L548 71L548 251L509 251L509 167L470 167L470 299L430 299L430 329L391 329L391 269L352 269L352 245L313 245L313 257L274 257L274 275L235 275L235 83L196 83L196 137L157 137L157 83L117 83L117 101L78 101L78 173L39 173L39 209L0 209Z" fill="#c23561"></path><path d="M0 295L39 295L39 265L78 265L78 289L117 289L117 307L157 307L157 235L196 235L196 253L235 253L235 367L274 367L274 337L313 337L313 301L352 301L352 361L391 361L391 415L430 415L430 403L470 403L470 325L509 325L509 349L548 349L548 283L587 283L587 259L626 259L626 397L665 397L665 325L704 325L704 391L743 391L743 379L783 379L783 319L822 319L822 265L861 265L861 253L900 253L900 301L900 125L900 131L861 131L861 203L822 203L822 257L783 257L783 47L743 47L743 227L704 227L704 281L665 281L665 245L626 245L626 197L587 197L587 125L548 125L548 293L509 293L509 239L470 239L470 353L430 353L430 383L391 383L391 347L352 347L352 293L313 293L313 281L274 281L274 341L235 341L235 131L196 131L196 215L157 215L157 143L117 143L117 119L78 119L78 191L39 191L39 215L0 215Z" fill="#cb3d62"></path><path d="M0 379L39 379L39 343L78 343L78 349L117 349L117 391L157 391L157 331L196 331L196 319L235 319L235 421L274 421L274 427L313 427L313 397L352 397L352 415L391 415L391 439L430 439L430 463L470 463L470 337L509 337L509 367L548 367L548 325L587 325L587 331L626 331L626 451L665 451L665 325L704 325L704 391L743 391L743 481L783 481L783 331L822 331L822 355L861 355L861 313L900 313L900 391L900 299L900 251L861 251L861 263L822 263L822 317L783 317L783 377L743 377L743 389L704 389L704 323L665 323L665 395L626 395L626 257L587 257L587 281L548 281L548 347L509 347L509 323L470 323L470 401L430 401L430 413L391 413L391 359L352 359L352 299L313 299L313 335L274 335L274 365L235 365L235 251L196 251L196 233L157 233L157 305L117 305L117 287L78 287L78 263L39 263L39 293L0 293Z" fill="#d44663"></path><path d="M0 457L39 457L39 421L78 421L78 409L117 409L117 427L157 427L157 385L196 385L196 325L235 325L235 439L274 439L274 463L313 463L313 475L352 475L352 433L391 433L391 529L430 529L430 511L470 511L470 343L509 343L509 409L548 409L548 337L587 337L587 343L626 343L626 505L665 505L665 391L704 391L704 427L743 427L743 511L783 511L783 391L822 391L822 403L861 403L861 379L900 379L900 433L900 389L900 311L861 311L861 353L822 353L822 329L783 329L783 479L743 479L743 389L704 389L704 323L665 323L665 449L626 449L626 329L587 329L587 323L548 323L548 365L509 365L509 335L470 335L470 461L430 461L430 437L391 437L391 413L352 413L352 395L313 395L313 425L274 425L274 419L235 419L235 317L196 317L196 329L157 329L157 389L117 389L117 347L78 347L78 341L39 341L39 377L0 377Z" fill="#dc4e64"></path><path d="M0 511L39 511L39 487L78 487L78 409L117 409L117 469L157 469L157 385L196 385L196 349L235 349L235 463L274 463L274 511L313 511L313 523L352 523L352 469L391 469L391 553L430 553L430 553L470 553L470 391L509 391L509 445L548 445L548 355L587 355L587 397L626 397L626 517L665 517L665 457L704 457L704 445L743 445L743 565L783 565L783 445L822 445L822 457L861 457L861 445L900 445L900 451L900 431L900 377L861 377L861 401L822 401L822 389L783 389L783 509L743 509L743 425L704 425L704 389L665 389L665 503L626 503L626 341L587 341L587 335L548 335L548 407L509 407L509 341L470 341L470 509L430 509L430 527L391 527L391 431L352 431L352 473L313 473L313 461L274 461L274 437L235 437L235 323L196 323L196 383L157 383L157 425L117 425L117 407L78 407L78 419L39 419L39 455L0 455Z" fill="#e45765"></path><path d="M0 565L39 565L39 547L78 547L78 445L117 445L117 529L157 529L157 433L196 433L196 355L235 355L235 505L274 505L274 571L313 571L313 541L352 541L352 505L391 505L391 565L430 565L430 577L470 577L470 451L509 451L509 493L548 493L548 397L587 397L587 457L626 457L626 559L665 559L665 481L704 481L704 457L743 457L743 571L783 571L783 475L822 475L822 475L861 475L861 463L900 463L900 505L900 449L900 443L861 443L861 455L822 455L822 443L783 443L783 563L743 563L743 443L704 443L704 455L665 455L665 515L626 515L626 395L587 395L587 353L548 353L548 443L509 443L509 389L470 389L470 551L430 551L430 551L391 551L391 467L352 467L352 521L313 521L313 509L274 509L274 461L235 461L235 347L196 347L196 383L157 383L157 467L117 467L117 407L78 407L78 485L39 485L39 509L0 509Z" fill="#ec6066"></path><path d="M0 589L39 589L39 577L78 577L78 469L117 469L117 553L157 553L157 523L196 523L196 463L235 463L235 517L274 517L274 583L313 583L313 589L352 589L352 571L391 571L391 595L430 595L430 577L470 577L470 511L509 511L509 553L548 553L548 487L587 487L587 493L626 493L626 583L665 583L665 493L704 493L704 541L743 541L743 571L783 571L783 553L822 553L822 511L861 511L861 529L900 529L900 571L900 503L900 461L861 461L861 473L822 473L822 473L783 473L783 569L743 569L743 455L704 455L704 479L665 479L665 557L626 557L626 455L587 455L587 395L548 395L548 491L509 491L509 449L470 449L470 575L430 575L430 563L391 563L391 503L352 503L352 539L313 539L313 569L274 569L274 503L235 503L235 353L196 353L196 431L157 431L157 527L117 527L117 443L78 443L78 545L39 545L39 563L0 563Z" fill="#f36967"></path><path d="M0 601L39 601L39 601L78 601L78 601L117 601L117 601L157 601L157 601L196 601L196 601L235 601L235 601L274 601L274 601L313 601L313 601L352 601L352 601L391 601L391 601L430 601L430 601L470 601L470 601L509 601L509 601L548 601L548 601L587 601L587 601L626 601L626 601L665 601L665 601L704 601L704 601L743 601L743 601L783 601L783 601L822 601L822 601L861 601L861 601L900 601L900 601L900 569L900 527L861 527L861 509L822 509L822 551L783 551L783 569L743 569L743 539L704 539L704 491L665 491L665 581L626 581L626 491L587 491L587 485L548 485L548 551L509 551L509 509L470 509L470 575L430 575L430 593L391 593L391 569L352 569L352 587L313 587L313 581L274 581L274 515L235 515L235 461L196 461L196 521L157 521L157 551L117 551L117 467L78 467L78 575L39 575L39 587L0 587Z" fill="#fa7268"></path></svg>